<svg width="100" height="100" viewBox="0 0 100 100" fill="none" xmlns="http://www.w3.org/2000/svg">
<g clip-path="url(#clip0_4_140)">
<path d="M91.2778 57.4445C93.4886 53.0229 92.4264 50.827 90.8823 49.8797C89.7279 49.1716 88.277 49.4886 86.9856 49.8964C83.4048 51.0272 80.0451 52.8037 77.0977 55.1305L74.1667 57.4445L71.4445 76.8889H94.7778C96.2812 76.8889 97.5 75.6702 97.5 74.1667C97.5 72.6633 96.2812 71.4445 94.7778 71.4445H80.3889C82.7222 69.3704 88.1667 63.6667 91.2778 57.4445Z" fill="#1FDE5A"/>
<path d="M24.7778 25.5555H76.1111V72.8889C76.1111 75.098 74.3202 76.8889 72.1111 76.8889H28.7778C26.5686 76.8889 24.7778 75.098 24.7778 72.8889V25.5555Z" fill="#1FDE5A"/>
<rect x="24.7778" y="17" width="17.8889" height="17.8889" rx="8.94444" fill="#1FDE5A"/>
<rect x="27.8889" y="20.1111" width="11.6667" height="11.6667" rx="5.83333" fill="white"/>
<rect x="29.4445" y="21.6666" width="8.55556" height="8.55556" rx="4.27778" fill="black"/>
<rect x="58.2222" y="17" width="17.8889" height="17.8889" rx="8.94444" fill="#1FDE5A"/>
<rect x="61.3333" y="20.1111" width="11.6667" height="11.6667" rx="5.83333" fill="white"/>
<rect x="62.8889" y="21.6666" width="8.55556" height="8.55556" rx="4.27778" fill="black"/>
<rect x="29.4445" y="46.5555" width="42" height="25.6667" rx="4" fill="white" fill-opacity="0.42"/>
<path d="M9.22221 57.4445C7.01143 53.0229 8.07356 50.827 9.6177 49.8797C10.7721 49.1716 12.223 49.4886 13.5144 49.8964C17.0952 51.0272 20.4549 52.8037 23.4023 55.1305L26.3333 57.4445L29.0555 76.8889H5.72221C4.21877 76.8889 2.99999 75.6702 2.99999 74.1667C2.99999 72.6633 4.21877 71.4445 5.72221 71.4445H20.1111C17.7778 69.3704 12.3333 63.6667 9.22221 57.4445Z" fill="#1FDE5A"/>
<line x1="33.5" y1="18" x2="33.5" y2="10" stroke="black"/>
<line x1="66.5" y1="18" x2="66.5" y2="10" stroke="black"/>
<line x1="36.6464" y1="19.6464" x2="42.6464" y2="13.6464" stroke="black"/>
<line x1="69.6464" y1="19.6464" x2="75.6464" y2="13.6464" stroke="black"/>
<line x1="28.6159" y1="20.3201" x2="23.6159" y2="14.3201" stroke="black"/>
<line x1="61.6159" y1="20.3201" x2="56.6159" y2="14.3201" stroke="black"/>
<line x1="26.8626" y1="24.4808" x2="19.8626" y2="22.4808" stroke="black"/>
<line x1="59.8626" y1="24.4808" x2="52.8626" y2="22.4808" stroke="black"/>
<line x1="40.8787" y1="23.5149" x2="48.8787" y2="21.5149" stroke="black"/>
<line x1="73.8787" y1="23.5149" x2="81.8787" y2="21.5149" stroke="black"/>
<rect x="43" y="48" width="6" height="8" fill="white"/>
<rect x="51" y="48" width="6" height="8" fill="white"/>
</g>
<defs>
<clipPath id="clip0_4_140">
<rect width="100" height="100" fill="white"/>
</clipPath>
</defs>
</svg>
